<svg width="32" height="32" viewBox="0 0 32 32" fill="none" xmlns="http://www.w3.org/2000/svg">
<path d="M29 12C29.0015 13.4968 28.6297 14.9703 27.9182 16.2871C27.2067 17.604 26.1781 18.7226 24.9253 19.5417C23.6726 20.3608 22.2353 20.8546 20.7437 20.9782C19.252 21.1019 17.7531 20.8516 16.3825 20.25L9.87503 27.7775C9.86003 27.795 9.84253 27.8137 9.82628 27.83C9.07605 28.5802 8.05851 29.0017 6.99753 29.0017C5.93654 29.0017 4.91901 28.5802 4.16878 27.83C3.41855 27.0798 2.99707 26.0622 2.99707 25.0012C2.99707 23.9403 3.41855 22.9227 4.16878 22.1725C4.18628 22.1562 4.20378 22.1387 4.22253 22.1237L11.75 15.6175C11.0756 14.0748 10.847 12.3739 11.0902 10.7078C11.3334 9.04177 12.0386 7.47721 13.1259 6.19161C14.2131 4.90601 15.6389 3.95083 17.2415 3.43443C18.844 2.91802 20.5592 2.86106 22.1925 3.27C22.3609 3.31219 22.5154 3.39749 22.6408 3.5175C22.7662 3.63751 22.8582 3.78809 22.9078 3.95444C22.9573 4.1208 22.9627 4.29718 22.9235 4.46626C22.8842 4.63533 22.8016 4.79128 22.6838 4.91875L18 10L18.7075 13.2937L22 14L27.0813 9.31C27.2087 9.19218 27.3647 9.10957 27.5338 9.0703C27.7028 9.03102 27.8792 9.03643 28.0456 9.086C28.2119 9.13556 28.3625 9.22757 28.4825 9.35298C28.6025 9.47839 28.6878 9.63288 28.73 9.80125C28.9095 10.5204 29.0002 11.2588 29 12Z" fill="#1F8459"/>
</svg>
