<svg width="32" height="32" viewBox="0 0 32 32" fill="none" xmlns="http://www.w3.org/2000/svg">
<path d="M20.7076 25.2924C20.8005 25.3854 20.8742 25.4957 20.9244 25.6171C20.9747 25.7384 21.0006 25.8686 21.0006 25.9999C21.0006 26.1313 20.9747 26.2614 20.9244 26.3828C20.8742 26.5042 20.8005 26.6145 20.7076 26.7074C20.6146 26.8004 20.5043 26.8741 20.383 26.9243C20.2616 26.9746 20.1314 27.0005 20.0001 27.0005C19.8687 27.0005 19.7386 26.9746 19.6172 26.9243C19.4958 26.8741 19.3855 26.8004 19.2926 26.7074L9.29255 16.7074C9.19958 16.6146 9.12582 16.5043 9.07549 16.3829C9.02517 16.2615 8.99927 16.1314 8.99927 15.9999C8.99927 15.8685 9.02517 15.7384 9.07549 15.617C9.12582 15.4956 9.19958 15.3853 9.29255 15.2924L19.2926 5.29245C19.4802 5.10481 19.7347 4.99939 20.0001 4.99939C20.2654 4.99939 20.5199 5.1048 20.7076 5.29245C20.8952 5.48009 21.0006 5.73458 21.0006 5.99995C21.0006 6.26531 20.8952 6.5198 20.7076 6.70745L11.4138 15.9999L20.7076 25.2924Z" fill="white"/>
</svg>
