<svg width="398" height="32" viewBox="0 0 398 32" fill="none" xmlns="http://www.w3.org/2000/svg">
<path fill-rule="evenodd" clip-rule="evenodd" d="M165.348 4.68165C165.976 4.0535 166.995 4.0535 167.623 4.68165L173.505 10.5639L167.596 16.2043C166.954 16.8176 165.935 16.794 165.322 16.1514C164.709 15.5088 164.732 14.4907 165.375 13.8773L167.189 12.1456H163.269C160.13 12.1456 157.585 14.69 157.585 17.8288C157.585 20.9675 160.13 23.5119 163.269 23.5119H171.204C172.092 23.5119 172.812 24.232 172.812 25.1205C172.812 26.0087 172.092 26.7288 171.204 26.7288H163.269C158.353 26.7288 154.369 22.7442 154.369 17.8288C154.369 12.9134 158.353 8.92866 163.269 8.92866H167.32L165.348 6.95635C164.72 6.32821 164.72 5.3098 165.348 4.68165Z" fill="#1F8459"/>
<path d="M185.676 14.6548C186.01 14.1206 186.441 13.7018 186.972 13.3983C187.515 13.0948 188.132 12.9431 188.824 12.9431V15.6199H188.139C187.324 15.6199 186.707 15.808 186.287 16.1843C185.88 16.5607 185.676 17.2162 185.676 18.151V23.1767H183.084V13.0887H185.676V14.6548Z" fill="#1F8459"/>
<path d="M200.104 17.9142C200.104 18.2784 200.079 18.6062 200.03 18.8975H192.532C192.594 19.6259 192.853 20.1965 193.309 20.6092C193.766 21.022 194.328 21.2283 194.994 21.2283C195.957 21.2283 196.642 20.8217 197.049 20.0083H199.845C199.549 20.9795 198.981 21.7807 198.141 22.412C197.302 23.0311 196.272 23.3406 195.05 23.3406C194.062 23.3406 193.174 23.1282 192.384 22.7033C191.606 22.2663 190.995 21.6532 190.551 20.8642C190.119 20.0751 189.903 19.1646 189.903 18.1327C189.903 17.0887 190.119 16.1722 190.551 15.3831C190.983 14.5941 191.588 13.9871 192.365 13.5622C193.143 13.1373 194.038 12.9249 195.05 12.9249C196.025 12.9249 196.895 13.1312 197.66 13.544C198.438 13.9567 199.036 14.5455 199.456 15.3103C199.888 16.0629 200.104 16.9309 200.104 17.9142ZM197.419 17.1859C197.407 16.5303 197.166 16.0083 196.697 15.6199C196.228 15.2192 195.654 15.0189 194.976 15.0189C194.334 15.0189 193.791 15.2132 193.346 15.6016C192.914 15.978 192.649 16.506 192.55 17.1859H197.419Z" fill="#1F8459"/>
<path d="M206.698 15.1828H204.902V23.1767H202.273V15.1828H201.107V13.0887H202.273V12.5789C202.273 11.3406 202.631 10.4302 203.347 9.84748C204.063 9.26478 205.143 8.99164 206.587 9.02805V11.1768C205.958 11.1646 205.52 11.2678 205.273 11.4863C205.026 11.7048 204.902 12.0994 204.902 12.6699V13.0887H206.698V15.1828Z" fill="#1F8459"/>
<path d="M218.061 13.0887V23.1767H215.45V21.9021C215.117 22.3391 214.679 22.6851 214.136 22.94C213.605 23.1828 213.025 23.3042 212.395 23.3042C211.593 23.3042 210.883 23.1403 210.266 22.8126C209.649 22.4726 209.162 21.981 208.804 21.3376C208.458 20.6821 208.285 19.9051 208.285 19.0068V13.0887H210.877V18.6426C210.877 19.4438 211.081 20.0629 211.488 20.5C211.896 20.9249 212.451 21.1373 213.154 21.1373C213.87 21.1373 214.432 20.9249 214.839 20.5C215.247 20.0629 215.45 19.4438 215.45 18.6426V13.0887H218.061Z" fill="#1F8459"/>
<path d="M226.302 12.9431C227.524 12.9431 228.511 13.3255 229.264 14.0903C230.017 14.8429 230.393 15.8991 230.393 17.2587V23.1767H227.801V17.6047C227.801 16.8035 227.598 16.1904 227.19 15.7655C226.783 15.3285 226.228 15.11 225.524 15.11C224.808 15.11 224.24 15.3285 223.821 15.7655C223.413 16.1904 223.21 16.8035 223.21 17.6047V23.1767H220.618V13.0887H223.21V14.3452C223.555 13.9082 223.994 13.5683 224.524 13.3255C225.067 13.0705 225.66 12.9431 226.302 12.9431Z" fill="#1F8459"/>
<path d="M232.191 18.0963C232.191 17.0766 232.395 16.1722 232.802 15.3831C233.222 14.5941 233.79 13.9871 234.506 13.5622C235.222 13.1373 236.018 12.9249 236.894 12.9249C237.56 12.9249 238.196 13.0705 238.801 13.3619C239.406 13.6411 239.887 14.0174 240.245 14.4909V9.7018H242.874V23.1767H240.245V21.6836C239.924 22.1813 239.473 22.5819 238.893 22.8854C238.313 23.1889 237.641 23.3406 236.875 23.3406C236.011 23.3406 235.222 23.1221 234.506 22.6851C233.79 22.2481 233.222 21.635 232.802 20.8459C232.395 20.0447 232.191 19.1282 232.191 18.0963ZM240.263 18.1327C240.263 17.5136 240.14 16.9856 239.893 16.5485C239.646 16.0994 239.313 15.7595 238.893 15.5288C238.474 15.286 238.023 15.1646 237.542 15.1646C237.061 15.1646 236.616 15.2799 236.209 15.5106C235.802 15.7412 235.468 16.0812 235.209 16.5303C234.962 16.9673 234.839 17.4893 234.839 18.0963C234.839 18.7033 234.962 19.2374 235.209 19.6988C235.468 20.1479 235.802 20.4939 236.209 20.7367C236.629 20.9795 237.073 21.1009 237.542 21.1009C238.023 21.1009 238.474 20.9855 238.893 20.7549C239.313 20.5121 239.646 20.1722 239.893 19.7352C240.14 19.286 240.263 18.7519 240.263 18.1327Z" fill="#1F8459"/>
</svg>
