<svg width="102" height="32" viewBox="0 0 102 32" fill="none" xmlns="http://www.w3.org/2000/svg">
<path fill-rule="evenodd" clip-rule="evenodd" d="M16.8745 4.68168C17.5027 4.05353 18.5211 4.05353 19.1492 4.68168L25.0313 10.5639L19.1225 16.2043C18.4799 16.8177 17.4618 16.794 16.8484 16.1514C16.235 15.5088 16.2587 14.4907 16.9013 13.8773L18.7155 12.1456H14.795C11.6562 12.1456 9.11177 14.6901 9.11177 17.8288C9.11177 20.9675 11.6562 23.5119 14.795 23.5119H22.73C23.6182 23.5119 24.3386 24.232 24.3386 25.1205C24.3386 26.0087 23.6182 26.7288 22.73 26.7288H14.795C9.87958 26.7288 5.8949 22.7442 5.8949 17.8288C5.8949 12.9134 9.87958 8.92869 14.795 8.92869H18.8469L16.8745 6.95638C16.2464 6.32824 16.2464 5.30983 16.8745 4.68168Z" fill="#1F8459"/>
<path d="M37.2026 14.6547C37.5358 14.1206 37.9678 13.7017 38.4985 13.3982C39.0416 13.0948 39.6587 12.943 40.3499 12.943V15.6198H39.6649C38.8503 15.6198 38.2332 15.808 37.8135 16.1843C37.4062 16.5606 37.2026 17.2161 37.2026 18.1509V23.1767H34.6107V13.0887H37.2026V14.6547Z" fill="#1F8459"/>
<path d="M51.6302 17.9142C51.6302 18.2784 51.6055 18.6061 51.5562 18.8975H44.0581C44.1198 19.6259 44.379 20.1964 44.8357 20.6092C45.2924 21.0219 45.854 21.2283 46.5204 21.2283C47.4832 21.2283 48.1682 20.8216 48.5755 20.0083H51.371C51.0748 20.9794 50.5071 21.7806 49.6678 22.4119C48.8285 23.031 47.7979 23.3406 46.576 23.3406C45.5886 23.3406 44.6999 23.1281 43.91 22.7032C43.1324 22.2662 42.5215 21.6532 42.0772 20.8641C41.6452 20.075 41.4292 19.1645 41.4292 18.1327C41.4292 17.0887 41.6452 16.1721 42.0772 15.3831C42.5091 14.594 43.1139 13.987 43.8915 13.5621C44.6691 13.1372 45.5639 12.9248 46.576 12.9248C47.551 12.9248 48.4212 13.1312 49.1864 13.5439C49.964 13.9567 50.5626 14.5454 50.9822 15.3102C51.4142 16.0629 51.6302 16.9309 51.6302 17.9142ZM48.9457 17.1858C48.9334 16.5303 48.6927 16.0083 48.2237 15.6198C47.7547 15.2192 47.1808 15.0189 46.5019 15.0189C45.8601 15.0189 45.3171 15.2131 44.8727 15.6016C44.4407 15.9779 44.1754 16.506 44.0766 17.1858H48.9457Z" fill="#1F8459"/>
<path d="M58.2246 15.1828H56.4287V23.1767H53.7998V15.1828H52.6334V13.0887H53.7998V12.5788C53.7998 11.3406 54.1577 10.4301 54.8736 9.84742C55.5894 9.26472 56.6694 8.99157 58.1135 9.02799V11.1767C57.484 11.1646 57.0459 11.2677 56.799 11.4863C56.5522 11.7048 56.4287 12.0993 56.4287 12.6699V13.0887H58.2246V15.1828Z" fill="#1F8459"/>
<path d="M69.5869 13.0887V23.1767H66.9765V21.902C66.6432 22.3391 66.2051 22.685 65.662 22.94C65.1313 23.1828 64.5512 23.3041 63.9217 23.3041C63.1194 23.3041 62.4098 23.1403 61.7926 22.8125C61.1755 22.4726 60.688 21.9809 60.3301 21.3375C59.9845 20.682 59.8117 19.9051 59.8117 19.0067V13.0887H62.4036V18.6425C62.4036 19.4438 62.6072 20.0629 63.0145 20.4999C63.4218 20.9248 63.9772 21.1372 64.6808 21.1372C65.3966 21.1372 65.9582 20.9248 66.3655 20.4999C66.7728 20.0629 66.9765 19.4438 66.9765 18.6425V13.0887H69.5869Z" fill="#1F8459"/>
<path d="M77.8279 12.943C79.0498 12.943 80.0372 13.3254 80.7901 14.0902C81.543 14.8429 81.9195 15.899 81.9195 17.2586V23.1767H79.3275V17.6046C79.3275 16.8034 79.1239 16.1904 78.7166 15.7655C78.3093 15.3284 77.7539 15.1099 77.0504 15.1099C76.3345 15.1099 75.7667 15.3284 75.3471 15.7655C74.9398 16.1904 74.7361 16.8034 74.7361 17.6046V23.1767H72.1442V13.0887H74.7361V14.3451C75.0817 13.9081 75.5199 13.5682 76.0506 13.3254C76.5937 13.0705 77.1861 12.943 77.8279 12.943Z" fill="#1F8459"/>
<path d="M83.7177 18.0963C83.7177 17.0765 83.9214 16.1721 84.3287 15.3831C84.7483 14.594 85.3161 13.987 86.0319 13.5621C86.7478 13.1372 87.5439 12.9248 88.4202 12.9248C89.0867 12.9248 89.7223 13.0705 90.3271 13.3618C90.9319 13.641 91.4133 14.0174 91.7712 14.4908V9.70174H94.4001V23.1767H91.7712V21.6835C91.4503 22.1812 90.9998 22.5818 90.4197 22.8853C89.8396 23.1888 89.1669 23.3406 88.4017 23.3406C87.5377 23.3406 86.7478 23.1221 86.0319 22.685C85.3161 22.248 84.7483 21.635 84.3287 20.8459C83.9214 20.0447 83.7177 19.1281 83.7177 18.0963ZM91.7897 18.1327C91.7897 17.5136 91.6663 16.9855 91.4194 16.5485C91.1726 16.0993 90.8393 15.7594 90.4197 15.5287C90 15.286 89.5495 15.1646 89.0682 15.1646C88.5868 15.1646 88.1425 15.2799 87.7352 15.5105C87.3279 15.7412 86.9947 16.0811 86.7355 16.5303C86.4886 16.9673 86.3652 17.4893 86.3652 18.0963C86.3652 18.7032 86.4886 19.2374 86.7355 19.6987C86.9947 20.1479 87.3279 20.4938 87.7352 20.7366C88.1549 20.9794 88.5992 21.1008 89.0682 21.1008C89.5495 21.1008 90 20.9855 90.4197 20.7548C90.8393 20.512 91.1726 20.1721 91.4194 19.7351C91.6663 19.2859 91.7897 18.7518 91.7897 18.1327Z" fill="#1F8459"/>
</svg>
