<svg width="20" height="20" viewBox="0 0 20 20" fill="none" xmlns="http://www.w3.org/2000/svg">
<path d="M3.30771 12.0577L9.55771 5.80771C9.61576 5.7496 9.68469 5.7035 9.76056 5.67205C9.83643 5.64059 9.91776 5.62441 9.9999 5.62441C10.082 5.62441 10.1634 5.64059 10.2392 5.67205C10.3151 5.7035 10.384 5.7496 10.4421 5.80771L16.6921 12.0577C16.8094 12.175 16.8752 12.334 16.8752 12.4999C16.8752 12.6657 16.8094 12.8248 16.6921 12.9421C16.5748 13.0594 16.4157 13.1252 16.2499 13.1252C16.084 13.1252 15.925 13.0594 15.8077 12.9421L9.9999 7.13349L4.19209 12.9421C4.13402 13.0002 4.06508 13.0462 3.98921 13.0776C3.91334 13.1091 3.83202 13.1252 3.7499 13.1252C3.66778 13.1252 3.58646 13.1091 3.51059 13.0776C3.43472 13.0462 3.36578 13.0002 3.30771 12.9421C3.24964 12.884 3.20358 12.8151 3.17215 12.7392C3.14073 12.6633 3.12455 12.582 3.12455 12.4999C3.12455 12.4178 3.14073 12.3365 3.17215 12.2606C3.20358 12.1847 3.24964 12.1158 3.30771 12.0577Z" fill="#1F8459"/>
</svg>
