<svg width="48" height="48" viewBox="0 0 48 48" fill="none" xmlns="http://www.w3.org/2000/svg">
<rect width="48" height="48" rx="8" fill="#1F8459"/>
<path d="M28.7194 27.5306L27 25.8103V31.5C27 31.6989 26.921 31.8897 26.7804 32.0303C26.6397 32.171 26.4489 32.25 26.25 32.25C26.0511 32.25 25.8604 32.171 25.7197 32.0303C25.5791 31.8897 25.5 31.6989 25.5 31.5V25.8103L23.7807 27.5306C23.711 27.6003 23.6283 27.6556 23.5372 27.6933C23.4462 27.731 23.3486 27.7504 23.25 27.7504C23.1515 27.7504 23.0539 27.731 22.9629 27.6933C22.8718 27.6556 22.7891 27.6003 22.7194 27.5306C22.6497 27.4609 22.5945 27.3782 22.5567 27.2872C22.519 27.1961 22.4996 27.0985 22.4996 27C22.4996 26.9015 22.519 26.8039 22.5567 26.7128C22.5945 26.6218 22.6497 26.5391 22.7194 26.4694L25.7194 23.4694C25.7891 23.3996 25.8718 23.3443 25.9628 23.3066C26.0539 23.2688 26.1515 23.2494 26.25 23.2494C26.3486 23.2494 26.4462 23.2688 26.5372 23.3066C26.6283 23.3443 26.711 23.3996 26.7807 23.4694L29.7807 26.4694C29.8503 26.5391 29.9056 26.6218 29.9433 26.7128C29.981 26.8039 30.0005 26.9015 30.0005 27C30.0005 27.0985 29.981 27.1961 29.9433 27.2872C29.9056 27.3782 29.8503 27.4609 29.7807 27.5306C29.711 27.6003 29.6283 27.6556 29.5372 27.6933C29.4462 27.731 29.3486 27.7504 29.25 27.7504C29.1515 27.7504 29.0539 27.731 28.9629 27.6933C28.8718 27.6556 28.7891 27.6003 28.7194 27.5306ZM27 15.75C25.4677 15.7512 23.966 16.1786 22.6628 16.9846C21.3596 17.7906 20.3064 18.9433 19.621 20.3138C18.8049 20.1938 17.9729 20.2435 17.1768 20.4595C16.3808 20.6756 15.6379 21.0535 14.9945 21.5696C14.351 22.0857 13.8209 22.7289 13.4373 23.4591C13.0536 24.1893 12.8246 24.9907 12.7646 25.8134C12.7045 26.636 12.8148 27.4622 13.0884 28.2403C13.362 29.0185 13.7931 29.7318 14.3548 30.3359C14.9165 30.9399 15.5967 31.4216 16.353 31.751C17.1092 32.0803 17.9252 32.2502 18.75 32.25H22.5C22.6989 32.25 22.8897 32.171 23.0304 32.0303C23.171 31.8897 23.25 31.6989 23.25 31.5C23.25 31.3011 23.171 31.1103 23.0304 30.9697C22.8897 30.829 22.6989 30.75 22.5 30.75H18.75C17.5566 30.75 16.412 30.2759 15.5681 29.432C14.7241 28.5881 14.25 27.4435 14.25 26.25C14.25 25.0565 14.7241 23.9119 15.5681 23.068C16.412 22.2241 17.5566 21.75 18.75 21.75C18.8532 21.75 18.9563 21.75 19.0585 21.7613C18.8535 22.4898 18.7497 23.2431 18.75 24C18.75 24.1989 18.8291 24.3897 18.9697 24.5303C19.1104 24.671 19.3011 24.75 19.5 24.75C19.6989 24.75 19.8897 24.671 20.0304 24.5303C20.171 24.3897 20.25 24.1989 20.25 24C20.2502 22.7831 20.5794 21.5889 21.2027 20.5437C21.826 19.4985 22.7202 18.6413 23.7908 18.0627C24.8614 17.4842 26.0685 17.2058 27.2843 17.257C28.5001 17.3083 29.6795 17.6872 30.6976 18.3538C31.7157 19.0205 32.5346 19.9499 33.0678 21.0438C33.6009 22.1377 33.8284 23.3554 33.7262 24.568C33.624 25.7806 33.1958 26.9431 32.4871 27.9323C31.7783 28.9215 30.8154 29.7007 29.7 30.1875C29.5417 30.2562 29.4118 30.3773 29.3324 30.5306C29.253 30.6839 29.2289 30.8598 29.2641 31.0288C29.2994 31.1978 29.3918 31.3494 29.5259 31.4581C29.66 31.5669 29.8274 31.626 30 31.6256C30.1034 31.6255 30.2056 31.6038 30.3 31.5619C32.0375 30.804 33.461 29.4708 34.3311 27.7867C35.2012 26.1025 35.4647 24.1701 35.0775 22.3145C34.6902 20.4589 33.6757 18.7932 32.2046 17.5977C30.7336 16.4021 28.8957 15.7497 27 15.75Z" fill="white"/>
</svg>
